<?xml version="1.0" standalone="no"?>
<!DOCTYPE svg PUBLIC "-//W3C//DTD SVG 20010904//EN"
 "http://www.w3.org/TR/2001/REC-SVG-20010904/DTD/svg10.dtd">
<svg version="1.0" xmlns="http://www.w3.org/2000/svg"
 width="700.000000pt" height="700.000000pt" viewBox="0 0 700.000000 700.000000"
 preserveAspectRatio="xMidYMid meet">
<metadata>
Created by potrace 1.14, written by Peter Selinger 2001-2017
</metadata>
<g transform="translate(0.000000,700.000000) scale(0.100000,-0.100000)"
fill="#000000" stroke="none">
<path d="M1798 6960 c-750 -140 -1363 -644 -1641 -1350 -52 -131 -100 -304
-121 -434 l-14 -89 944 944 c519 519 944 945 944 946 0 4 -1 4 -112 -17z"/>
<path d="M4385 6124 c-267 -48 -477 -156 -695 -356 -143 -132 -830 -823 -892
-898 -462 -561 -388 -1385 168 -1849 50 -42 133 -100 184 -129 l94 -53 168
168 c92 92 168 171 168 174 0 4 -24 14 -52 24 -113 36 -268 135 -349 222 -234
252 -302 602 -178 923 59 153 101 204 568 673 240 241 468 463 506 492 465
356 1133 170 1348 -375 64 -164 73 -380 23 -553 -55 -185 -103 -255 -359 -513
l-209 -212 21 -93 c24 -116 45 -328 39 -409 -2 -33 -1 -60 2 -60 4 0 159 154
346 343 354 357 415 429 498 595 50 98 102 257 121 367 20 117 20 328 0 447
-48 273 -167 501 -370 703 -259 260 -567 387 -934 384 -75 0 -172 -7 -216 -15z"/>
<path d="M3603 4447 c-164 -166 -185 -193 -156 -204 144 -50 256 -118 351
-211 319 -311 352 -808 77 -1161 -61 -78 -930 -941 -985 -978 -229 -153 -512
-194 -770 -111 -135 43 -249 115 -355 224 -284 291 -325 743 -98 1088 28 43
128 153 250 277 l204 206 -20 100 c-26 128 -44 331 -36 406 3 31 2 57 -2 57
-12 0 -627 -621 -684 -690 -295 -356 -381 -842 -228 -1277 133 -378 436 -678
813 -808 139 -47 265 -67 426 -67 282 0 514 72 755 235 70 48 182 152 504 472
566 561 632 637 726 839 91 194 128 358 127 571 -1 379 -156 725 -441 979 -67
60 -193 147 -267 184 l-41 21 -150 -152z"/>
</g>
</svg>
